<svg xmlns="http://www.w3.org/2000/svg" viewBox="0 0 100 100">
  <rect x="0" y="0" width="100" height="100" fill="white" />
  <path d="M66.5272 51.8669 L66.5571 51.8696" fill="none" stroke="black" stroke-width="0.2" stroke-linecap="round" />
  <path d="M23.3171 11.4276 L23.3347 11.4519" fill="none" stroke="black" stroke-width="0.2" stroke-linecap="round" />
  <path d="M4.452 84.545 L4.4635 84.5727" fill="none" stroke="black" stroke-width="0.2" stroke-linecap="round" />
  <path d="M62.8032 18.8175 L62.7895 18.8442" fill="none" stroke="black" stroke-width="0.2" stroke-linecap="round" />
  <path d="M44.4869 11.5965 L44.4599 11.6095" fill="none" stroke="black" stroke-width="0.2" stroke-linecap="round" />
  <path d="M95.2724 40.5278 L95.2704 40.5577" fill="none" stroke="black" stroke-width="0.2" stroke-linecap="round" />
  <path d="M27.5984 31.4116 L27.5932 31.4412" fill="none" stroke="black" stroke-width="0.2" stroke-linecap="round" />
  <path d="M72.7036 95.7359 L72.7247 95.7572" fill="none" stroke="black" stroke-width="0.2" stroke-linecap="round" />
  <path d="M65.1406 82.6549 L65.1256 82.6808" fill="none" stroke="black" stroke-width="0.2" stroke-linecap="round" />
  <path d="M42.4756 64.5618 L42.4921 64.5869" fill="none" stroke="black" stroke-width="0.2" stroke-linecap="round" />
  <path d="M21.9143 49.5663 L21.8861 49.5768" fill="none" stroke="black" stroke-width="0.2" stroke-linecap="round" />
  <path d="M48.8631 3.5361 L48.8642 3.5661" fill="none" stroke="black" stroke-width="0.2" stroke-linecap="round" />
  <path d="M52.6473 19.0057 L52.6189 19.0152" fill="none" stroke="black" stroke-width="0.2" stroke-linecap="round" />
  <path d="M56.2462 70.298 L56.2538 70.327" fill="none" stroke="black" stroke-width="0.2" stroke-linecap="round" />
  <path d="M50.6791 65.4162 L50.6519 65.4287" fill="none" stroke="black" stroke-width="0.2" stroke-linecap="round" />
  <path d="M49.1254 85.9271 L49.1037 85.9479" fill="none" stroke="black" stroke-width="0.2" stroke-linecap="round" />
  <path d="M72.2538 34.738 L72.2522 34.768" fill="none" stroke="black" stroke-width="0.2" stroke-linecap="round" />
  <path d="M18.1874 96.3634 L18.1577 96.3676" fill="none" stroke="black" stroke-width="0.2" stroke-linecap="round" />
  <path d="M91.2886 12.7522 L91.2635 12.7686" fill="none" stroke="black" stroke-width="0.2" stroke-linecap="round" />
  <path d="M3.9046 37.4851 L3.9079 37.5149" fill="none" stroke="black" stroke-width="0.2" stroke-linecap="round" />
  <path d="M4.0954 47.1546 L4.0742 47.1758" fill="none" stroke="black" stroke-width="0.2" stroke-linecap="round" />
  <path d="M24.4705 63.4518 L24.4478 63.4713" fill="none" stroke="black" stroke-width="0.2" stroke-linecap="round" />
  <path d="M45.5076 20.5506 L45.478 20.5551" fill="none" stroke="black" stroke-width="0.2" stroke-linecap="round" />
  <path d="M13.5808 30.0861 L13.6067 30.1014" fill="none" stroke="black" stroke-width="0.2" stroke-linecap="round" />
  <path d="M19.1554 36.1583 L19.1258 36.1631" fill="none" stroke="black" stroke-width="0.2" stroke-linecap="round" />
  <path d="M63.807 95.2115 L63.7972 95.2399" fill="none" stroke="black" stroke-width="0.2" stroke-linecap="round" />
  <path d="M85.7874 90.2676 L85.7751 90.2949" fill="none" stroke="black" stroke-width="0.2" stroke-linecap="round" />
  <path d="M73.1636 53.7247 L73.1534 53.753" fill="none" stroke="black" stroke-width="0.2" stroke-linecap="round" />
  <path d="M84.1164 72.6934 L84.1127 72.7232" fill="none" stroke="black" stroke-width="0.2" stroke-linecap="round" />
  <path d="M95.5432 49.8012 L95.5414 49.8312" fill="none" stroke="black" stroke-width="0.2" stroke-linecap="round" />
  <path d="M44.7025 56.6692 L44.7072 56.6988" fill="none" stroke="black" stroke-width="0.2" stroke-linecap="round" />
  <path d="M68.7651 73.6028 L68.7853 73.625" fill="none" stroke="black" stroke-width="0.2" stroke-linecap="round" />
  <path d="M60.8954 76.11 L60.868 76.1222" fill="none" stroke="black" stroke-width="0.2" stroke-linecap="round" />
  <path d="M83.5801 12.4938 L83.6074 12.5062" fill="none" stroke="black" stroke-width="0.2" stroke-linecap="round" />
  <path d="M4.2508 68.0119 L4.2561 68.0414" fill="none" stroke="black" stroke-width="0.2" stroke-linecap="round" />
  <path d="M88.2816 54.0029 L88.2809 54.0329" fill="none" stroke="black" stroke-width="0.2" stroke-linecap="round" />
  <path d="M14.889 45.4444 L14.8961 45.4736" fill="none" stroke="black" stroke-width="0.2" stroke-linecap="round" />
  <path d="M68.1621 44.4265 L68.1921 44.4276" fill="none" stroke="black" stroke-width="0.2" stroke-linecap="round" />
  <path d="M11.1532 38.2741 L11.1269 38.2884" fill="none" stroke="black" stroke-width="0.2" stroke-linecap="round" />
  <path d="M50.8821 27.9788 L50.9119 27.9818" fill="none" stroke="black" stroke-width="0.2" stroke-linecap="round" />
  <path d="M12.4864 73.5874 L12.5136 73.6001" fill="none" stroke="black" stroke-width="0.2" stroke-linecap="round" />
  <path d="M77.2466 29.237 L77.2177 29.2451" fill="none" stroke="black" stroke-width="0.2" stroke-linecap="round" />
  <path d="M40.861 43.4933 L40.8773 43.5185" fill="none" stroke="black" stroke-width="0.2" stroke-linecap="round" />
  <path d="M96.2164 4.5512 L96.1866 4.5544" fill="none" stroke="black" stroke-width="0.2" stroke-linecap="round" />
  <path d="M17.6944 58.8664 L17.6749 58.8892" fill="none" stroke="black" stroke-width="0.2" stroke-linecap="round" />
  <path d="M62.512 9.295 L62.488 9.313" fill="none" stroke="black" stroke-width="0.2" stroke-linecap="round" />
  <path d="M36.5956 33.64 L36.6187 33.6591" fill="none" stroke="black" stroke-width="0.2" stroke-linecap="round" />
  <path d="M33.4672 25.1106 L33.4971 25.1126" fill="none" stroke="black" stroke-width="0.2" stroke-linecap="round" />
  <path d="M4.4154 75.9354 L4.4015 75.962" fill="none" stroke="black" stroke-width="0.2" stroke-linecap="round" />
  <path d="M3.2403 28.6442 L3.2701 28.6474" fill="none" stroke="black" stroke-width="0.2" stroke-linecap="round" />
  <path d="M53.4872 58.1537 L53.4632 58.1717" fill="none" stroke="black" stroke-width="0.2" stroke-linecap="round" />
  <path d="M31.0137 48.207 L31.0399 48.2215" fill="none" stroke="black" stroke-width="0.2" stroke-linecap="round" />
  <path d="M90.0313 76.8101 L90.0468 76.8358" fill="none" stroke="black" stroke-width="0.2" stroke-linecap="round" />
  <path d="M4.4499 19.3036 L4.4786 19.3124" fill="none" stroke="black" stroke-width="0.2" stroke-linecap="round" />
  <path d="M37.2005 94.7581 L37.1745 94.7732" fill="none" stroke="black" stroke-width="0.2" stroke-linecap="round" />
  <path d="M42.0732 4.1147 L42.0786 4.1442" fill="none" stroke="black" stroke-width="0.2" stroke-linecap="round" />
  <path d="M4.7025 11.9412 L4.6725 11.9427" fill="none" stroke="black" stroke-width="0.2" stroke-linecap="round" />
  <path d="M43.3031 72.5907 L43.3289 72.6061" fill="none" stroke="black" stroke-width="0.2" stroke-linecap="round" />
  <path d="M37.6718 52.9343 L37.6811 52.9629" fill="none" stroke="black" stroke-width="0.2" stroke-linecap="round" />
  <path d="M95.9041 90.2856 L95.8928 90.3134" fill="none" stroke="black" stroke-width="0.2" stroke-linecap="round" />
  <path d="M67.1331 3.3749 L67.1117 3.3959" fill="none" stroke="black" stroke-width="0.2" stroke-linecap="round" />
  <path d="M57.276 85.7074 L57.246 85.708" fill="none" stroke="black" stroke-width="0.2" stroke-linecap="round" />
  <path d="M14.2817 11.5042 L14.2969 11.5301" fill="none" stroke="black" stroke-width="0.2" stroke-linecap="round" />
  <path d="M80.6602 4.0793 L80.6523 4.1082" fill="none" stroke="black" stroke-width="0.2" stroke-linecap="round" />
  <path d="M80.2591 96.3517 L80.2708 96.3793" fill="none" stroke="black" stroke-width="0.2" stroke-linecap="round" />
  <path d="M56.2441 95.2987 L56.2559 95.3263" fill="none" stroke="black" stroke-width="0.2" stroke-linecap="round" />
  <path d="M78.8583 20.6041 L78.834 20.6218" fill="none" stroke="black" stroke-width="0.2" stroke-linecap="round" />
  <path d="M57.3625 49.9065 L57.3465 49.9319" fill="none" stroke="black" stroke-width="0.2" stroke-linecap="round" />
  <path d="M27.3354 70.3 L27.3521 70.325" fill="none" stroke="black" stroke-width="0.2" stroke-linecap="round" />
  <path d="M90.2213 33.8915 L90.2162 33.921" fill="none" stroke="black" stroke-width="0.2" stroke-linecap="round" />
  <path d="M21.0433 19.3395 L21.024 19.3625" fill="none" stroke="black" stroke-width="0.2" stroke-linecap="round" />
  <path d="M20.3213 3.6709 L20.3037 3.6952" fill="none" stroke="black" stroke-width="0.2" stroke-linecap="round" />
  <path d="M59.3332 42.4054 L59.3052 42.416" fill="none" stroke="black" stroke-width="0.2" stroke-linecap="round" />
  <path d="M51.2812 76.4065 L51.2579 76.4255" fill="none" stroke="black" stroke-width="0.2" stroke-linecap="round" />
  <path d="M25.4835 40.7267 L25.454 40.7316" fill="none" stroke="black" stroke-width="0.2" stroke-linecap="round" />
  <path d="M75.5916 79.5271 L75.5802 79.5549" fill="none" stroke="black" stroke-width="0.2" stroke-linecap="round" />
  <path d="M68.6715 12.7001 L68.6864 12.7261" fill="none" stroke="black" stroke-width="0.2" stroke-linecap="round" />
  <path d="M85.4292 45.1599 L85.4348 45.1894" fill="none" stroke="black" stroke-width="0.2" stroke-linecap="round" />
  <path d="M43.2537 80.0541 L43.2272 80.0682" fill="none" stroke="black" stroke-width="0.2" stroke-linecap="round" />
  <path d="M61.7318 65.3751 L61.7057 65.39" fill="none" stroke="black" stroke-width="0.2" stroke-linecap="round" />
  <path d="M95.6564 59.4361 L95.6788 59.456" fill="none" stroke="black" stroke-width="0.2" stroke-linecap="round" />
  <path d="M15.8342 89.0201 L15.8209 89.047" fill="none" stroke="black" stroke-width="0.2" stroke-linecap="round" />
  <path d="M35.2783 71.7357 L35.2497 71.7449" fill="none" stroke="black" stroke-width="0.2" stroke-linecap="round" />
  <path d="M80.4066 53.5945 L80.4301 53.6131" fill="none" stroke="black" stroke-width="0.2" stroke-linecap="round" />
  <path d="M97.244 76.9828 L97.2163 76.9944" fill="none" stroke="black" stroke-width="0.2" stroke-linecap="round" />
  <path d="M21.2678 26.8493 L21.2803 26.8766" fill="none" stroke="black" stroke-width="0.2" stroke-linecap="round" />
  <path d="M36.0615 4.121 L36.0367 4.1379" fill="none" stroke="black" stroke-width="0.2" stroke-linecap="round" />
  <path d="M96.0952 96.8601 L96.0923 96.8899" fill="none" stroke="black" stroke-width="0.2" stroke-linecap="round" />
  <path d="M84.2053 82.7977 L84.2099 82.8273" fill="none" stroke="black" stroke-width="0.2" stroke-linecap="round" />
  <path d="M83.1937 36.4521 L83.1873 36.4814" fill="none" stroke="black" stroke-width="0.2" stroke-linecap="round" />
  <path d="M10.7257 4.1071 L10.6957 4.1086" fill="none" stroke="black" stroke-width="0.2" stroke-linecap="round" />
  <path d="M29.0279 18.9329 L29.0001 18.9442" fill="none" stroke="black" stroke-width="0.2" stroke-linecap="round" />
  <path d="M76.5493 70.726 L76.5757 70.7404" fill="none" stroke="black" stroke-width="0.2" stroke-linecap="round" />
  <path d="M33.419 11.6037 L33.4452 11.6182" fill="none" stroke="black" stroke-width="0.2" stroke-linecap="round" />
  <path d="M69.227 87.9906 L69.2568 87.9932" fill="none" stroke="black" stroke-width="0.2" stroke-linecap="round" />
  <path d="M3.399 94.7853 L3.3718 94.7981" fill="none" stroke="black" stroke-width="0.2" stroke-linecap="round" />
  <path d="M76.4427 43.1432 L76.4456 43.1731" fill="none" stroke="black" stroke-width="0.2" stroke-linecap="round" />
  <path d="M24.0103 87.2743 L23.9807 87.2793" fill="none" stroke="black" stroke-width="0.2" stroke-linecap="round" />
  <path d="M2.9987 4.1267 L3.0281 4.1322" fill="none" stroke="black" stroke-width="0.2" stroke-linecap="round" />
  <path d="M57.1043 13.845 L57.1226 13.8688" fill="none" stroke="black" stroke-width="0.2" stroke-linecap="round" />
  <path d="M35.3 80.5249 L35.2966 80.5547" fill="none" stroke="black" stroke-width="0.2" stroke-linecap="round" />
  <path d="M19.6059 70.6092 L19.5768 70.6167" fill="none" stroke="black" stroke-width="0.2" stroke-linecap="round" />
  <path d="M74.0795 5.2141 L74.108 5.2234" fill="none" stroke="black" stroke-width="0.2" stroke-linecap="round" />
  <path d="M43.2067 97.7651 L43.1772 97.7706" fill="none" stroke="black" stroke-width="0.2" stroke-linecap="round" />
  <path d="M31.774 96.741 L31.7951 96.7623" fill="none" stroke="black" stroke-width="0.2" stroke-linecap="round" />
  <path d="M38.6974 17.785 L38.6753 17.8053" fill="none" stroke="black" stroke-width="0.2" stroke-linecap="round" />
  <path d="M86.0708 63.2775 L86.0998 63.285" fill="none" stroke="black" stroke-width="0.2" stroke-linecap="round" />
  <path d="M8.5929 25.8444 L8.5946 25.8743" fill="none" stroke="black" stroke-width="0.2" stroke-linecap="round" />
  <path d="M28.8334 4.2523 L28.8633 4.2546" fill="none" stroke="black" stroke-width="0.2" stroke-linecap="round" />
  <path d="M33.4679 40.4538 L33.4696 40.4837" fill="none" stroke="black" stroke-width="0.2" stroke-linecap="round" />
  <path d="M10.5907 53.4507 L10.6146 53.4689" fill="none" stroke="black" stroke-width="0.2" stroke-linecap="round" />
  <path d="M52.5502 9.3263 L52.5449 9.3558" fill="none" stroke="black" stroke-width="0.2" stroke-linecap="round" />
  <path d="M87.7626 20.2108 L87.7583 20.2405" fill="none" stroke="black" stroke-width="0.2" stroke-linecap="round" />
  <path d="M77.3321 62.7695 L77.3554 62.7885" fill="none" stroke="black" stroke-width="0.2" stroke-linecap="round" />
  <path d="M11.8297 64.4939 L11.831 64.5239" fill="none" stroke="black" stroke-width="0.2" stroke-linecap="round" />
  <path d="M95.7499 22.8152 L95.7432 22.8445" fill="none" stroke="black" stroke-width="0.2" stroke-linecap="round" />
  <path d="M57.8028 3.2437 L57.8222 3.2667" fill="none" stroke="black" stroke-width="0.2" stroke-linecap="round" />
  <path d="M64.4404 35.8937 L64.437 35.9235" fill="none" stroke="black" stroke-width="0.2" stroke-linecap="round" />
  <path d="M13.5596 19.9262 L13.5816 19.9465" fill="none" stroke="black" stroke-width="0.2" stroke-linecap="round" />
  <path d="M75.6506 13.136 L75.6515 13.166" fill="none" stroke="black" stroke-width="0.2" stroke-linecap="round" />
  <path d="M10.1087 94.6732 L10.0996 94.7018" fill="none" stroke="black" stroke-width="0.2" stroke-linecap="round" />
  <path d="M69.3913 63.2189 L69.3782 63.2459" fill="none" stroke="black" stroke-width="0.2" stroke-linecap="round" />
  <path d="M12.5149 82.3154 L12.543 82.3258" fill="none" stroke="black" stroke-width="0.2" stroke-linecap="round" />
  <path d="M3.86 58.8629 L3.8578 58.8928" fill="none" stroke="black" stroke-width="0.2" stroke-linecap="round" />
  <path d="M96.0885 30.2744 L96.099 30.3025" fill="none" stroke="black" stroke-width="0.2" stroke-linecap="round" />
  <path d="M43.7503 91.7038 L43.7497 91.7337" fill="none" stroke="black" stroke-width="0.2" stroke-linecap="round" />
  <path d="M88.6513 96.447 L88.6215 96.4507" fill="none" stroke="black" stroke-width="0.2" stroke-linecap="round" />
  <path d="M77.5106 87.7939 L77.5375 87.8071" fill="none" stroke="black" stroke-width="0.2" stroke-linecap="round" />
  <path d="M58.7698 26.5481 L58.7783 26.5769" fill="none" stroke="black" stroke-width="0.2" stroke-linecap="round" />
  <path d="M20.7569 79.3847 L20.784 79.3976" fill="none" stroke="black" stroke-width="0.2" stroke-linecap="round" />
  <path d="M93.9117 84.1379 L93.9231 84.1656" fill="none" stroke="black" stroke-width="0.2" stroke-linecap="round" />
  <path d="M27.5639 56.0325 L27.5402 56.0509" fill="none" stroke="black" stroke-width="0.2" stroke-linecap="round" />
  <path d="M34.3401 62.135 L34.3626 62.1548" fill="none" stroke="black" stroke-width="0.2" stroke-linecap="round" />
  <path d="M56.1724 34.5078 L56.154 34.5315" fill="none" stroke="black" stroke-width="0.2" stroke-linecap="round" />
  <path d="M62.0681 57.1415 L62.0906 57.1614" fill="none" stroke="black" stroke-width="0.2" stroke-linecap="round" />
  <path d="M66.5232 27.2089 L66.5297 27.2382" fill="none" stroke="black" stroke-width="0.2" stroke-linecap="round" />
  <path d="M48.2338 49.7774 L48.2246 49.8059" fill="none" stroke="black" stroke-width="0.2" stroke-linecap="round" />
  <path d="M88.2947 4.4018 L88.2678 4.4151" fill="none" stroke="black" stroke-width="0.2" stroke-linecap="round" />
  <path d="M97.0862 14.3317 L97.09 14.3615" fill="none" stroke="black" stroke-width="0.2" stroke-linecap="round" />
  <path d="M46.2029 35.715 L46.1929 35.7433" fill="none" stroke="black" stroke-width="0.2" stroke-linecap="round" />
  <path d="M39.0721 86.5652 L39.0529 86.5882" fill="none" stroke="black" stroke-width="0.2" stroke-linecap="round" />
  <path d="M50.0869 95.4823 L50.1169 95.4824" fill="none" stroke="black" stroke-width="0.2" stroke-linecap="round" />
  <path d="M94.7771 68.486 L94.8062 68.4931" fill="none" stroke="black" stroke-width="0.2" stroke-linecap="round" />
  <path d="M28.7114 78.3307 L28.7261 78.3568" fill="none" stroke="black" stroke-width="0.2" stroke-linecap="round" />
  <path d="M71.2875 21.3275 L71.2606 21.3407" fill="none" stroke="black" stroke-width="0.2" stroke-linecap="round" />
  <path d="M31.4439 87.9408 L31.4467 87.9707" fill="none" stroke="black" stroke-width="0.2" stroke-linecap="round" />
  <path d="M42.2553 27.8928 L42.2313 27.9107" fill="none" stroke="black" stroke-width="0.2" stroke-linecap="round" />
  <path d="M85.1673 26.913 L85.1452 26.9332" fill="none" stroke="black" stroke-width="0.2" stroke-linecap="round" />
  <path d="M50.3658 42.2634 L50.3865 42.2852" fill="none" stroke="black" stroke-width="0.2" stroke-linecap="round" />
  <path d="M25.4422 95.5014 L25.4693 95.5143" fill="none" stroke="black" stroke-width="0.2" stroke-linecap="round" />
</svg>
