<svg xmlns="http://www.w3.org/2000/svg" viewBox="0 0 100 100">
  <rect x="0" y="0" width="100" height="100" fill="white" />
  <path d="M68.0946 52.7122 L68.1245 52.7149" fill="none" stroke="black" stroke-width="0.2" stroke-linecap="round" />
  <path d="M20.6903 11.9843 L20.708 12.0085" fill="none" stroke="black" stroke-width="0.2" stroke-linecap="round" />
  <path d="M2.0322 82.2231 L2.0436 82.2508" fill="none" stroke="black" stroke-width="0.2" stroke-linecap="round" />
  <path d="M62.3838 18.4223 L62.3701 18.449" fill="none" stroke="black" stroke-width="0.2" stroke-linecap="round" />
  <path d="M44.2341 8.8829 L44.2071 8.8959" fill="none" stroke="black" stroke-width="0.2" stroke-linecap="round" />
  <path d="M94.5546 39.9879 L94.5525 40.0178" fill="none" stroke="black" stroke-width="0.2" stroke-linecap="round" />
  <path d="M25.653 30.9718 L25.6478 31.0013" fill="none" stroke="black" stroke-width="0.2" stroke-linecap="round" />
  <path d="M73.3398 91.5383 L73.3609 91.5597" fill="none" stroke="black" stroke-width="0.2" stroke-linecap="round" />
  <path d="M65.4597 83.8361 L65.4446 83.8621" fill="none" stroke="black" stroke-width="0.2" stroke-linecap="round" />
  <path d="M41.7577 63.6963 L41.7741 63.7214" fill="none" stroke="black" stroke-width="0.2" stroke-linecap="round" />
  <path d="M23.2699 49.0663 L23.2418 49.0767" fill="none" stroke="black" stroke-width="0.2" stroke-linecap="round" />
  <path d="M48.0217 3.1011 L48.0228 3.131" fill="none" stroke="black" stroke-width="0.2" stroke-linecap="round" />
  <path d="M55.2292 18.7204 L55.2007 18.7299" fill="none" stroke="black" stroke-width="0.2" stroke-linecap="round" />
  <path d="M55.7666 70.7767 L55.7742 70.8057" fill="none" stroke="black" stroke-width="0.2" stroke-linecap="round" />
  <path d="M51.8115 65.925 L51.7842 65.9375" fill="none" stroke="black" stroke-width="0.2" stroke-linecap="round" />
  <path d="M48.2707 85.3531 L48.249 85.3739" fill="none" stroke="black" stroke-width="0.2" stroke-linecap="round" />
  <path d="M71.1127 34.9085 L71.1111 34.9385" fill="none" stroke="black" stroke-width="0.2" stroke-linecap="round" />
  <path d="M21.7148 97.5163 L21.6851 97.5206" fill="none" stroke="black" stroke-width="0.2" stroke-linecap="round" />
  <path d="M94.7993 16.8503 L94.7742 16.8667" fill="none" stroke="black" stroke-width="0.2" stroke-linecap="round" />
  <path d="M7.9797 40.167 L7.983 40.1968" fill="none" stroke="black" stroke-width="0.2" stroke-linecap="round" />
  <path d="M6.5856 45.6826 L6.5643 45.7038" fill="none" stroke="black" stroke-width="0.2" stroke-linecap="round" />
  <path d="M26.1112 63.2674 L26.0884 63.2869" fill="none" stroke="black" stroke-width="0.2" stroke-linecap="round" />
  <path d="M43.8997 22.1701 L43.8701 22.1746" fill="none" stroke="black" stroke-width="0.2" stroke-linecap="round" />
  <path d="M13.6316 28.5938 L13.6574 28.6091" fill="none" stroke="black" stroke-width="0.2" stroke-linecap="round" />
  <path d="M18.1022 34.0158 L18.0725 34.0206" fill="none" stroke="black" stroke-width="0.2" stroke-linecap="round" />
  <path d="M61.8923 97.1644 L61.8825 97.1928" fill="none" stroke="black" stroke-width="0.2" stroke-linecap="round" />
  <path d="M84.0156 90.1739 L84.0033 90.2013" fill="none" stroke="black" stroke-width="0.2" stroke-linecap="round" />
  <path d="M74.1021 56.5422 L74.092 56.5705" fill="none" stroke="black" stroke-width="0.2" stroke-linecap="round" />
  <path d="M81.9904 76.1048 L81.9866 76.1346" fill="none" stroke="black" stroke-width="0.2" stroke-linecap="round" />
  <path d="M92.9928 49.9236 L92.9911 49.9535" fill="none" stroke="black" stroke-width="0.2" stroke-linecap="round" />
  <path d="M44.6569 55.4052 L44.6616 55.4348" fill="none" stroke="black" stroke-width="0.2" stroke-linecap="round" />
  <path d="M69.9923 77.9696 L70.0124 77.9919" fill="none" stroke="black" stroke-width="0.2" stroke-linecap="round" />
  <path d="M60.3835 75.3426 L60.3561 75.3548" fill="none" stroke="black" stroke-width="0.2" stroke-linecap="round" />
  <path d="M81.9426 13.2894 L81.9699 13.3019" fill="none" stroke="black" stroke-width="0.2" stroke-linecap="round" />
  <path d="M0.0239 67.2926 L0.0292 67.3221" fill="none" stroke="black" stroke-width="0.2" stroke-linecap="round" />
  <path d="M85.6798 53.3876 L85.679 53.4175" fill="none" stroke="black" stroke-width="0.2" stroke-linecap="round" />
  <path d="M16.1021 47.918 L16.1092 47.9471" fill="none" stroke="black" stroke-width="0.2" stroke-linecap="round" />
  <path d="M68.6067 45.9912 L68.6367 45.9923" fill="none" stroke="black" stroke-width="0.2" stroke-linecap="round" />
  <path d="M12.8424 35.8745 L12.8161 35.8889" fill="none" stroke="black" stroke-width="0.2" stroke-linecap="round" />
  <path d="M51.9755 27.6865 L52.0053 27.6896" fill="none" stroke="black" stroke-width="0.2" stroke-linecap="round" />
  <path d="M13.4425 73.5698 L13.4697 73.5825" fill="none" stroke="black" stroke-width="0.2" stroke-linecap="round" />
  <path d="M77.3547 26.1365 L77.3258 26.1445" fill="none" stroke="black" stroke-width="0.2" stroke-linecap="round" />
  <path d="M38.9823 42.8186 L38.9985 42.8438" fill="none" stroke="black" stroke-width="0.2" stroke-linecap="round" />
  <path d="M93.7224 11.0719 L93.6926 11.075" fill="none" stroke="black" stroke-width="0.2" stroke-linecap="round" />
  <path d="M17.764 58.7627 L17.7445 58.7855" fill="none" stroke="black" stroke-width="0.2" stroke-linecap="round" />
  <path d="M62.2382 10.0063 L62.2142 10.0243" fill="none" stroke="black" stroke-width="0.2" stroke-linecap="round" />
  <path d="M35.5553 34.2454 L35.5784 34.2646" fill="none" stroke="black" stroke-width="0.2" stroke-linecap="round" />
  <path d="M31.2588 25.6513 L31.2888 25.6533" fill="none" stroke="black" stroke-width="0.2" stroke-linecap="round" />
  <path d="M2.1952 76.8643 L2.1813 76.8909" fill="none" stroke="black" stroke-width="0.2" stroke-linecap="round" />
  <path d="M0.7414 26.6556 L0.7713 26.6588" fill="none" stroke="black" stroke-width="0.2" stroke-linecap="round" />
  <path d="M52.0185 58.0855 L51.9945 58.1035" fill="none" stroke="black" stroke-width="0.2" stroke-linecap="round" />
  <path d="M31.4971 49.3141 L31.5234 49.3286" fill="none" stroke="black" stroke-width="0.2" stroke-linecap="round" />
  <path d="M91.1012 79.3631 L91.1167 79.3888" fill="none" stroke="black" stroke-width="0.2" stroke-linecap="round" />
  <path d="M8.6354 18.5676 L8.6641 18.5764" fill="none" stroke="black" stroke-width="0.2" stroke-linecap="round" />
  <path d="M37.2415 95.5881 L37.2156 95.6032" fill="none" stroke="black" stroke-width="0.2" stroke-linecap="round" />
  <path d="M41.4611 0.4191 L41.4666 0.4486" fill="none" stroke="black" stroke-width="0.2" stroke-linecap="round" />
  <path d="M7.5238 12.1929 L7.4938 12.1943" fill="none" stroke="black" stroke-width="0.2" stroke-linecap="round" />
  <path d="M41.8184 73.6699 L41.8442 73.6853" fill="none" stroke="black" stroke-width="0.2" stroke-linecap="round" />
  <path d="M37.2446 52.9156 L37.2539 52.9442" fill="none" stroke="black" stroke-width="0.2" stroke-linecap="round" />
  <path d="M96.4366 90.5381 L96.4253 90.5659" fill="none" stroke="black" stroke-width="0.2" stroke-linecap="round" />
  <path d="M66.7293 2.8639 L66.7079 2.8849" fill="none" stroke="black" stroke-width="0.2" stroke-linecap="round" />
  <path d="M55.5014 84.4862 L55.4714 84.4868" fill="none" stroke="black" stroke-width="0.2" stroke-linecap="round" />
  <path d="M15.8033 8.1381 L15.8184 8.164" fill="none" stroke="black" stroke-width="0.2" stroke-linecap="round" />
  <path d="M78.05 1.4876 L78.0421 1.5165" fill="none" stroke="black" stroke-width="0.2" stroke-linecap="round" />
  <path d="M80.6149 98.93 L80.6266 98.9576" fill="none" stroke="black" stroke-width="0.2" stroke-linecap="round" />
  <path d="M56.5628 98.7336 L56.5747 98.7612" fill="none" stroke="black" stroke-width="0.2" stroke-linecap="round" />
  <path d="M76.5214 20.7229 L76.4972 20.7406" fill="none" stroke="black" stroke-width="0.2" stroke-linecap="round" />
  <path d="M55.6879 49.8847 L55.672 49.9101" fill="none" stroke="black" stroke-width="0.2" stroke-linecap="round" />
  <path d="M26.0503 70.4607 L26.067 70.4857" fill="none" stroke="black" stroke-width="0.2" stroke-linecap="round" />
  <path d="M92.3255 33.3079 L92.3204 33.3374" fill="none" stroke="black" stroke-width="0.2" stroke-linecap="round" />
  <path d="M19.9701 17.628 L19.9509 17.651" fill="none" stroke="black" stroke-width="0.2" stroke-linecap="round" />
  <path d="M21.8695 6.0816 L21.852 6.1059" fill="none" stroke="black" stroke-width="0.2" stroke-linecap="round" />
  <path d="M58.5187 41.5702 L58.4906 41.5808" fill="none" stroke="black" stroke-width="0.2" stroke-linecap="round" />
  <path d="M49.3784 73.1464 L49.3551 73.1653" fill="none" stroke="black" stroke-width="0.2" stroke-linecap="round" />
  <path d="M24.6072 40.888 L24.5776 40.8929" fill="none" stroke="black" stroke-width="0.2" stroke-linecap="round" />
  <path d="M75.8566 79.9419 L75.8452 79.9697" fill="none" stroke="black" stroke-width="0.2" stroke-linecap="round" />
  <path d="M66.7211 12.4042 L66.736 12.4302" fill="none" stroke="black" stroke-width="0.2" stroke-linecap="round" />
  <path d="M84.0445 44.5067 L84.0501 44.5362" fill="none" stroke="black" stroke-width="0.2" stroke-linecap="round" />
  <path d="M43.4002 79.4472 L43.3737 79.4613" fill="none" stroke="black" stroke-width="0.2" stroke-linecap="round" />
  <path d="M61.8348 64.614 L61.8087 64.6289" fill="none" stroke="black" stroke-width="0.2" stroke-linecap="round" />
  <path d="M99.276 62.8595 L99.2984 62.8794" fill="none" stroke="black" stroke-width="0.2" stroke-linecap="round" />
  <path d="M18.1996 89.359 L18.1862 89.3858" fill="none" stroke="black" stroke-width="0.2" stroke-linecap="round" />
  <path d="M34.2699 72.1519 L34.2413 72.161" fill="none" stroke="black" stroke-width="0.2" stroke-linecap="round" />
  <path d="M79.6965 56.1845 L79.72 56.2031" fill="none" stroke="black" stroke-width="0.2" stroke-linecap="round" />
  <path d="M99.453 76.6651 L99.4253 76.6766" fill="none" stroke="black" stroke-width="0.2" stroke-linecap="round" />
  <path d="M18.6358 28.321 L18.6482 28.3483" fill="none" stroke="black" stroke-width="0.2" stroke-linecap="round" />
  <path d="M37.0053 4.5635 L36.9805 4.5803" fill="none" stroke="black" stroke-width="0.2" stroke-linecap="round" />
  <path d="M99.5361 96.8059 L99.5332 96.8358" fill="none" stroke="black" stroke-width="0.2" stroke-linecap="round" />
  <path d="M84.4147 84.5962 L84.4193 84.6258" fill="none" stroke="black" stroke-width="0.2" stroke-linecap="round" />
  <path d="M84.4485 36.7643 L84.4421 36.7936" fill="none" stroke="black" stroke-width="0.2" stroke-linecap="round" />
  <path d="M8.6591 6.074 L8.6291 6.0755" fill="none" stroke="black" stroke-width="0.2" stroke-linecap="round" />
  <path d="M30.5546 20.2507 L30.5268 20.2619" fill="none" stroke="black" stroke-width="0.2" stroke-linecap="round" />
  <path d="M78.1339 72.2501 L78.1602 72.2646" fill="none" stroke="black" stroke-width="0.2" stroke-linecap="round" />
  <path d="M36.3233 10.7875 L36.3495 10.802" fill="none" stroke="black" stroke-width="0.2" stroke-linecap="round" />
  <path d="M68.885 87.8175 L68.9149 87.8202" fill="none" stroke="black" stroke-width="0.2" stroke-linecap="round" />
  <path d="M0.7331 91.9916 L0.706 92.0043" fill="none" stroke="black" stroke-width="0.2" stroke-linecap="round" />
  <path d="M72.4674 41.465 L72.4703 41.4949" fill="none" stroke="black" stroke-width="0.2" stroke-linecap="round" />
  <path d="M22.8425 86.4334 L22.8129 86.4384" fill="none" stroke="black" stroke-width="0.2" stroke-linecap="round" />
  <path d="M1.9176 3.6193 L1.9471 3.6248" fill="none" stroke="black" stroke-width="0.2" stroke-linecap="round" />
  <path d="M57.2637 13.3418 L57.282 13.3656" fill="none" stroke="black" stroke-width="0.2" stroke-linecap="round" />
  <path d="M34.1685 82.9708 L34.165 83.0006" fill="none" stroke="black" stroke-width="0.2" stroke-linecap="round" />
  <path d="M20.7238 73.9846 L20.6948 73.9922" fill="none" stroke="black" stroke-width="0.2" stroke-linecap="round" />
  <path d="M75.2868 5.7165 L75.3154 5.7257" fill="none" stroke="black" stroke-width="0.2" stroke-linecap="round" />
  <path d="M43.94 99.0614 L43.9105 99.0669" fill="none" stroke="black" stroke-width="0.2" stroke-linecap="round" />
  <path d="M32.0336 99.8532 L32.0547 99.8745" fill="none" stroke="black" stroke-width="0.2" stroke-linecap="round" />
  <path d="M39.2749 17.4648 L39.2529 17.4851" fill="none" stroke="black" stroke-width="0.2" stroke-linecap="round" />
  <path d="M85.6443 61.0842 L85.6733 61.0917" fill="none" stroke="black" stroke-width="0.2" stroke-linecap="round" />
  <path d="M9.3592 25.5817 L9.361 25.6116" fill="none" stroke="black" stroke-width="0.2" stroke-linecap="round" />
  <path d="M30.1863 3.6602 L30.2162 3.6624" fill="none" stroke="black" stroke-width="0.2" stroke-linecap="round" />
  <path d="M34.1402 41.0746 L34.1419 41.1046" fill="none" stroke="black" stroke-width="0.2" stroke-linecap="round" />
  <path d="M9.9537 51.1933 L9.9776 51.2115" fill="none" stroke="black" stroke-width="0.2" stroke-linecap="round" />
  <path d="M54.0042 8.4453 L53.999 8.4748" fill="none" stroke="black" stroke-width="0.2" stroke-linecap="round" />
  <path d="M90.7525 19.8524 L90.7482 19.8821" fill="none" stroke="black" stroke-width="0.2" stroke-linecap="round" />
  <path d="M76.8781 63.7429 L76.9013 63.7619" fill="none" stroke="black" stroke-width="0.2" stroke-linecap="round" />
  <path d="M9.1481 64.587 L9.1493 64.617" fill="none" stroke="black" stroke-width="0.2" stroke-linecap="round" />
  <path d="M97.5275 22.1424 L97.5208 22.1716" fill="none" stroke="black" stroke-width="0.2" stroke-linecap="round" />
  <path d="M58.5749 3.4351 L58.5942 3.4581" fill="none" stroke="black" stroke-width="0.2" stroke-linecap="round" />
  <path d="M63.5696 38.8056 L63.5662 38.8354" fill="none" stroke="black" stroke-width="0.2" stroke-linecap="round" />
  <path d="M15.5092 22.5345 L15.5313 22.5548" fill="none" stroke="black" stroke-width="0.2" stroke-linecap="round" />
  <path d="M76.7614 14.4846 L76.7622 14.5146" fill="none" stroke="black" stroke-width="0.2" stroke-linecap="round" />
  <path d="M10.4014 89.764 L10.3923 89.7926" fill="none" stroke="black" stroke-width="0.2" stroke-linecap="round" />
  <path d="M68.8617 59.0843 L68.8487 59.1113" fill="none" stroke="black" stroke-width="0.2" stroke-linecap="round" />
  <path d="M12.5782 85.1909 L12.6063 85.2013" fill="none" stroke="black" stroke-width="0.2" stroke-linecap="round" />
  <path d="M2.5603 60.7668 L2.558 60.7968" fill="none" stroke="black" stroke-width="0.2" stroke-linecap="round" />
  <path d="M94.9607 26.9781 L94.9711 27.0062" fill="none" stroke="black" stroke-width="0.2" stroke-linecap="round" />
  <path d="M42.2182 92.9715 L42.2176 93.0015" fill="none" stroke="black" stroke-width="0.2" stroke-linecap="round" />
  <path d="M87.9147 96.7232 L87.8849 96.7268" fill="none" stroke="black" stroke-width="0.2" stroke-linecap="round" />
  <path d="M77.4666 85.3189 L77.4935 85.332" fill="none" stroke="black" stroke-width="0.2" stroke-linecap="round" />
  <path d="M58.8245 25.929 L58.833 25.9578" fill="none" stroke="black" stroke-width="0.2" stroke-linecap="round" />
  <path d="M24.4583 81.2722 L24.4854 81.285" fill="none" stroke="black" stroke-width="0.2" stroke-linecap="round" />
  <path d="M92.4233 84.3948 L92.4348 84.4225" fill="none" stroke="black" stroke-width="0.2" stroke-linecap="round" />
  <path d="M26.6824 54.2163 L26.6588 54.2347" fill="none" stroke="black" stroke-width="0.2" stroke-linecap="round" />
  <path d="M36.7614 61.2245 L36.7839 61.2443" fill="none" stroke="black" stroke-width="0.2" stroke-linecap="round" />
  <path d="M56.2461 32.8353 L56.2278 32.859" fill="none" stroke="black" stroke-width="0.2" stroke-linecap="round" />
  <path d="M63.8665 56.5653 L63.8889 56.5852" fill="none" stroke="black" stroke-width="0.2" stroke-linecap="round" />
  <path d="M65.4768 22.5085 L65.4832 22.5378" fill="none" stroke="black" stroke-width="0.2" stroke-linecap="round" />
  <path d="M50.2207 50.8572 L50.2115 50.8857" fill="none" stroke="black" stroke-width="0.2" stroke-linecap="round" />
  <path d="M88.9013 6.132 L88.8745 6.1453" fill="none" stroke="black" stroke-width="0.2" stroke-linecap="round" />
  <path d="M99.9116 16.6047 L99.9153 16.6345" fill="none" stroke="black" stroke-width="0.2" stroke-linecap="round" />
  <path d="M47.7992 34.955 L47.7891 34.9832" fill="none" stroke="black" stroke-width="0.2" stroke-linecap="round" />
  <path d="M38.0773 86.6775 L38.058 86.7004" fill="none" stroke="black" stroke-width="0.2" stroke-linecap="round" />
  <path d="M49.7758 99.7917 L49.8058 99.7918" fill="none" stroke="black" stroke-width="0.2" stroke-linecap="round" />
  <path d="M96.3802 67.8202 L96.4093 67.8273" fill="none" stroke="black" stroke-width="0.2" stroke-linecap="round" />
  <path d="M28.3301 77.0018 L28.3447 77.028" fill="none" stroke="black" stroke-width="0.2" stroke-linecap="round" />
  <path d="M70.6859 21.3201 L70.659 21.3333" fill="none" stroke="black" stroke-width="0.2" stroke-linecap="round" />
  <path d="M31.5181 89.3406 L31.5209 89.3704" fill="none" stroke="black" stroke-width="0.2" stroke-linecap="round" />
  <path d="M44.8515 28.6079 L44.8274 28.6258" fill="none" stroke="black" stroke-width="0.2" stroke-linecap="round" />
  <path d="M82.4319 20.4876 L82.4098 20.5078" fill="none" stroke="black" stroke-width="0.2" stroke-linecap="round" />
  <path d="M50.7105 41.7194 L50.7312 41.7411" fill="none" stroke="black" stroke-width="0.2" stroke-linecap="round" />
  <path d="M28.5087 94.6444 L28.5358 94.6573" fill="none" stroke="black" stroke-width="0.2" stroke-linecap="round" />
</svg>
